<svg xmlns="http://www.w3.org/2000/svg" viewBox="0 0 707.27 102.45"><defs><style>.cls-1{fill:none;}</style></defs><title>logo</title><g id="Layer_2" data-name="Layer 2"><g id="Layer_1-2" data-name="Layer 1"><path class="cls-1" d="M17.42,10.47V12.7A36.33,36.33,0,0,1,28.23,3.28a26.37,26.37,0,0,1,12.69-3A29.36,29.36,0,0,1,56.59,4.66,30.2,30.2,0,0,1,67.9,17.49q4.16,8.45,4.16,20a48.66,48.66,0,0,1-2.4,15.63,35.07,35.07,0,0,1-6.58,12,28.87,28.87,0,0,1-9.9,7.43,29.25,29.25,0,0,1-12.26,2.6,25.67,25.67,0,0,1-13.27-3.18A38,38,0,0,1,17.42,62.6V90.29q0,12.17-8.84,12.16-5.2,0-6.89-3.14T0,90.16V10.6C0,7.09.76,4.47,2.3,2.74A7.92,7.92,0,0,1,8.58.14,8.29,8.29,0,0,1,15,2.8Q17.42,5.47,17.42,10.47ZM53.55,37.28a32,32,0,0,0-2.22-12.53,18.45,18.45,0,0,0-6.18-8,14.85,14.85,0,0,0-8.75-2.8,16.41,16.41,0,0,0-12.86,6q-5.23,6-5.24,17.7,0,11,5.2,17.12a16.29,16.29,0,0,0,12.9,6.11,14.81,14.81,0,0,0,8.51-2.67,18.42,18.42,0,0,0,6.28-8A31.69,31.69,0,0,0,53.55,37.28ZM123.07,64.7a57.52,57.52,0,0,1-12.93,7.8,36.24,36.24,0,0,1-14,2.6,26.53,26.53,0,0,1-12.46-2.81,20.52,20.52,0,0,1-8.28-7.59,19.79,19.79,0,0,1-2.9-10.4,18.64,18.64,0,0,1,4.79-12.9q4.8-5.34,13.17-7.16,1.76-.41,8.72-1.82c4.63-1,8.61-1.82,11.91-2.6S118,28.07,121.86,27c-.23-4.87-1.21-8.43-2.94-10.71s-5.33-3.41-10.77-3.41q-7,0-10.57,2a17.1,17.1,0,0,0-6.08,5.88,61.54,61.54,0,0,1-3.58,5.16c-.7.84-2.19,1.25-4.49,1.25a7.85,7.85,0,0,1-5.37-2A6.49,6.49,0,0,1,75.8,20a15.62,15.62,0,0,1,3.44-9.45Q82.69,5.94,90,3t18.17-3q12.15,0,19.11,2.87A17.78,17.78,0,0,1,137.09,12Q140,18.18,140,28.43c0,4.32,0,8,0,11s-.06,6.37-.1,10.06a37,37,0,0,0,1.72,10.84,34,34,0,0,1,1.72,7.26,6.8,6.8,0,0,1-2.66,5.17,9,9,0,0,1-6,2.33,8.13,8.13,0,0,1-5.6-2.67A39.61,39.61,0,0,1,123.07,64.7ZM121.86,38a92.24,92.24,0,0,1-11.79,3.14q-7.72,1.67-10.7,2.43a14.57,14.57,0,0,0-5.67,3A7.77,7.77,0,0,0,91,53a9.34,9.34,0,0,0,3.18,7.12,11.71,11.71,0,0,0,8.3,2.94,21.59,21.59,0,0,0,10.1-2.4,16,16,0,0,0,6.79-6.18q2.49-4.18,2.5-13.77Zm43.77-27.69v2.23a32.18,32.18,0,0,1,10.64-9.42,28.36,28.36,0,0,1,13.27-3,26.41,26.41,0,0,1,13,3.17,20.18,20.18,0,0,1,8.58,9,21.45,21.45,0,0,1,2.36,7.29,75.8,75.8,0,0,1,.54,10V63.89q0,5.53-2.53,8.37a9.09,9.09,0,0,1-13.27-.07q-2.56-2.89-2.57-8.3V33.16q0-9.12-2.53-13.95c-1.69-3.21-5.05-4.83-10.09-4.83a15,15,0,0,0-9,2.94,16.9,16.9,0,0,0-5.94,8.07q-1.35,4.13-1.35,15.4v23.1c0,3.73-.87,6.54-2.6,8.4a8.74,8.74,0,0,1-6.72,2.81,8.34,8.34,0,0,1-6.55-2.91q-2.57-2.89-2.57-8.3V10.6q0-5.26,2.3-7.86a7.92,7.92,0,0,1,6.28-2.6,8.58,8.58,0,0,1,4.39,1.14,8.32,8.32,0,0,1,3.14,3.45A12.1,12.1,0,0,1,165.63,10.33ZM273.14,21.27,239.37,59H275.5q4.39,0,6.62,2.06a6.9,6.9,0,0,1,2.23,5.31,6.46,6.46,0,0,1-2.19,5.06c-1.47,1.31-3.68,2-6.66,2h-50c-3.51,0-6.14-.77-7.87-2.3a8,8,0,0,1-2.6-6.28,7.86,7.86,0,0,1,1.83-4.76q1.81-2.4,7.56-8.81,6.08-6.75,11-12.23t9.22-10.23Q249,24,251.77,20.73t4.49-5.67H228.84a27.78,27.78,0,0,1-8.58-1q-2.89-1-2.9-5.34a6.35,6.35,0,0,1,2.19-5.06,9.32,9.32,0,0,1,6.25-1.89h42.34q5.88,0,9,1.72t3.14,6.18a8.47,8.47,0,0,1-.61,3.07,10.83,10.83,0,0,1-1.35,2.6c-.5.68-1.17,1.5-2,2.46S274.4,19.92,273.14,21.27Zm62,20.87H299.05a24.48,24.48,0,0,0,2.53,11.08,16.95,16.95,0,0,0,15.57,9.65,22,22,0,0,0,6-.77,19.73,19.73,0,0,0,5.3-2.43,41.38,41.38,0,0,0,4.73-3.55q2.16-1.89,5.61-5.13a6,6,0,0,1,4.05-1.22,6.65,6.65,0,0,1,4.59,1.56,5.53,5.53,0,0,1,1.76,4.38,12.07,12.07,0,0,1-2,5.85A23.3,23.3,0,0,1,341.36,68a33.63,33.63,0,0,1-9.93,5.1,42.77,42.77,0,0,1-13.74,2q-17.76,0-27.62-10.13t-9.86-27.49a45.86,45.86,0,0,1,2.43-15.16,33.45,33.45,0,0,1,7.09-12,30.78,30.78,0,0,1,11.48-7.66A41.19,41.19,0,0,1,316.34,0q10.8,0,18.54,4.56a30.08,30.08,0,0,1,11.58,11.78,31.09,31.09,0,0,1,3.85,14.73q0,6.95-4,9T335.11,42.14ZM299.05,31.67h33.43q-.68-9.45-5.1-14.15a15.29,15.29,0,0,0-11.65-4.69,14.77,14.77,0,0,0-11.31,4.76Q300,22.36,299.05,31.67Zm75,16.82v15.4c0,3.73-.88,6.54-2.64,8.4a8.76,8.76,0,0,1-6.68,2.81,8.44,8.44,0,0,1-6.55-2.84q-2.56-2.83-2.57-8.37V12.56q0-12.42,9-12.42c3.06,0,5.27,1,6.62,2.9s2.09,4.79,2.23,8.58A32.28,32.28,0,0,1,380.24,3q3.48-2.91,9.28-2.9A23.74,23.74,0,0,1,400.8,3q5.47,2.91,5.47,7.7a7.33,7.33,0,0,1-2.33,5.57,7.23,7.23,0,0,1-5,2.19,22.69,22.69,0,0,1-4.9-1.25A22.8,22.8,0,0,0,387.16,16a10,10,0,0,0-6.62,2.12,13.64,13.64,0,0,0-4,6.32,43.78,43.78,0,0,0-2,10Q374.06,40.19,374.06,48.49ZM453.55,64.7a57.3,57.3,0,0,1-12.93,7.8,36.17,36.17,0,0,1-14,2.6,26.53,26.53,0,0,1-12.46-2.81,20.43,20.43,0,0,1-8.27-7.59A19.71,19.71,0,0,1,403,54.3a18.6,18.6,0,0,1,4.8-12.9q4.78-5.34,13.17-7.16,1.76-.41,8.71-1.82t11.92-2.6q5-1.18,10.77-2.87c-.23-4.87-1.21-8.43-2.94-10.71s-5.32-3.41-10.77-3.41q-7,0-10.57,2A17.18,17.18,0,0,0,422,20.67a61.54,61.54,0,0,1-3.58,5.16c-.7.84-2.19,1.25-4.49,1.25a7.85,7.85,0,0,1-5.37-2,6.49,6.49,0,0,1-2.26-5.1,15.57,15.57,0,0,1,3.45-9.45q3.43-4.6,10.73-7.57t18.17-3q12.15,0,19.11,2.87A17.78,17.78,0,0,1,467.57,12q2.87,6.23,2.87,16.48,0,6.48,0,11t-.1,10.06A37.33,37.33,0,0,0,472,60.34a34.32,34.32,0,0,1,1.73,7.26,6.81,6.81,0,0,1-2.67,5.17A9,9,0,0,1,465,75.1a8.13,8.13,0,0,1-5.6-2.67A39.61,39.61,0,0,1,453.55,64.7ZM452.34,38a92.24,92.24,0,0,1-11.79,3.14q-7.73,1.67-10.7,2.43a14.57,14.57,0,0,0-5.67,3,7.79,7.79,0,0,0-2.7,6.32,9.33,9.33,0,0,0,3.17,7.12A11.74,11.74,0,0,0,433,63a21.58,21.58,0,0,0,10.09-2.4,16,16,0,0,0,6.79-6.18q2.49-4.18,2.5-13.77ZM491.11,75.1a10.5,10.5,0,0,1-7.23-2.7,9.59,9.59,0,0,1-3-7.57,9.82,9.82,0,0,1,2.9-7.09,9.64,9.64,0,0,1,7.16-3,10,10,0,0,1,7.26,2.94,9.57,9.57,0,0,1,3,7.12,9.64,9.64,0,0,1-3,7.53A10.1,10.1,0,0,1,491.11,75.1Zm36.82-64.63V12.7a36.33,36.33,0,0,1,10.81-9.42,26.32,26.32,0,0,1,12.69-3A29.38,29.38,0,0,1,567.1,4.66a30.27,30.27,0,0,1,11.31,12.83q4.15,8.45,4.15,20a48.94,48.94,0,0,1-2.39,15.63,35.09,35.09,0,0,1-6.59,12,28.83,28.83,0,0,1-9.89,7.43,29.28,29.28,0,0,1-12.26,2.6,25.64,25.64,0,0,1-13.27-3.18,37.74,37.74,0,0,1-10.23-9.32V90.29q0,12.17-8.85,12.16c-3.46,0-5.76-1-6.88-3.14s-1.69-5.15-1.69-9.15V10.6q0-5.26,2.29-7.86a7.93,7.93,0,0,1,6.28-2.6,8.27,8.27,0,0,1,6.38,2.66Q527.93,5.47,527.93,10.47Zm36.13,26.81a31.82,31.82,0,0,0-2.23-12.53,18.3,18.3,0,0,0-6.18-8,14.82,14.82,0,0,0-8.74-2.8,16.44,16.44,0,0,0-12.87,6q-5.24,6-5.23,17.7,0,11,5.2,17.12a16.27,16.27,0,0,0,12.9,6.11,14.83,14.83,0,0,0,8.51-2.67,18.42,18.42,0,0,0,6.28-8A31.86,31.86,0,0,0,564.06,37.28ZM606,48.49v15.4c0,3.73-.87,6.54-2.63,8.4a8.78,8.78,0,0,1-6.69,2.81,8.45,8.45,0,0,1-6.55-2.84q-2.57-2.83-2.56-8.37V12.56q0-12.42,9-12.42c3.06,0,5.27,1,6.62,2.9s2.09,4.79,2.23,8.58A32.07,32.07,0,0,1,612.15,3q3.48-2.91,9.29-2.9A23.74,23.74,0,0,1,632.72,3q5.46,2.91,5.47,7.7a7.33,7.33,0,0,1-2.33,5.57,7.25,7.25,0,0,1-5,2.19,22.69,22.69,0,0,1-4.9-1.25A22.8,22.8,0,0,0,619.08,16a10,10,0,0,0-6.62,2.12,13.74,13.74,0,0,0-4,6.32,44.33,44.33,0,0,0-2,10Q606,40.19,606,48.49Zm101.3-10.87a43.59,43.59,0,0,1-2.57,15.19,33.38,33.38,0,0,1-7.43,12,32.7,32.7,0,0,1-11.61,7.67,41,41,0,0,1-15.2,2.67,39.93,39.93,0,0,1-15.06-2.7,33.3,33.3,0,0,1-19-19.62,43.68,43.68,0,0,1-2.53-15.16,44,44,0,0,1,2.57-15.33,33.32,33.32,0,0,1,7.36-11.89A32.41,32.41,0,0,1,655.4,2.8a44,44,0,0,1,30.26,0,32.88,32.88,0,0,1,11.68,7.7,33.31,33.31,0,0,1,7.4,11.88A43.71,43.71,0,0,1,707.27,37.62Zm-18.5,0q0-11.28-5-17.56a16.11,16.11,0,0,0-13.34-6.28,16.51,16.51,0,0,0-9.52,2.8,17.86,17.86,0,0,0-6.35,8.27,33.81,33.81,0,0,0-2.22,12.77,33.45,33.45,0,0,0,2.19,12.62,18.13,18.13,0,0,0,6.28,8.28,16.32,16.32,0,0,0,9.62,2.87,16.09,16.09,0,0,0,13.34-6.32Q688.77,48.76,688.77,37.62Z"/></g></g></svg>