<svg xmlns="http://www.w3.org/2000/svg" viewBox="0 0 600.99 133.97">

	<defs>
		<style>.cls-1{fill:aqua;}.cls-2{fill:#ff0;}.cls-3{fill:#f0f;}.cls-4{fill:lime;}</style>
	</defs>
	<title>Welcome.</title>
			<path d="M553.47,134c-13.8,0-25.31-3.64-34.28-10.82a21.61,21.61,0,0,1-2.52,3.39,23.41,23.41,0,0,1-34.24,0,23.54,23.54,0,0,1-5.5-10.85,23.51,23.51,0,0,1-5.48,10.89A22.55,22.55,0,0,1,454.28,134a22.22,22.22,0,0,1-17.06-7.5,23.69,23.69,0,0,1-5.59-11.83,23.9,23.9,0,0,1-5.54,11.75,23,23,0,0,1-36.78-3.29,48.88,48.88,0,0,1-12.42,7.14A56.59,56.59,0,0,1,356.06,134a55.1,55.1,0,0,1-20.78-3.81,48.36,48.36,0,0,1-15.83-10.29c-.89.88-1.84,1.75-2.83,2.58a47.23,47.23,0,0,1-15.47,8.41,60.71,60.71,0,0,1-19.41,3c-13.49,0-24.75-3.63-33.55-10.82a21.49,21.49,0,0,1-2.8,3.76,22.94,22.94,0,0,1-33.77-.41c-.4-.45-.78-.92-1.14-1.4a50.5,50.5,0,0,1-12.6,6.19A58.38,58.38,0,0,1,179.2,134c-16.09,0-29-4.93-38.51-14.66a48,48,0,0,1-4.67-5.6c-.36,1.18-.7,2.23-1,3.13a27.06,27.06,0,0,1-7.69,11.29c-3,2.66-8.34,5.84-16.74,5.84a25,25,0,0,1-16.22-5.48,26.13,26.13,0,0,1-8-11c-.9-2.38-2.06-6.1-3.54-11.38l-4-14.86-4,14.76c-1.46,5.21-2.62,8.93-3.54,11.37a26.71,26.71,0,0,1-8,11A24.91,24.91,0,0,1,47,134a25.78,25.78,0,0,1-13.07-3.24A24.31,24.31,0,0,1,25,121.81a39,39,0,0,1-3.91-9.54c-.68-2.49-1.3-4.85-1.84-7L2,35.37A52,52,0,0,1,0,22.9,22.33,22.33,0,0,1,6.86,6.55,22.88,22.88,0,0,1,23.18,0C35.1,0,40.49,6.7,42.64,10.7A53.4,53.4,0,0,1,47.4,24.88l1.71,7.6,1.16-4.34A101.31,101.31,0,0,1,53.8,16.78a27.45,27.45,0,0,1,8.36-11.3C66.63,1.84,72.25,0,78.87,0c8.55,0,14,3.21,17.06,5.91a27.29,27.29,0,0,1,7.76,11c.9,2.43,2,6.09,3.41,11.19l1.26,4.66,1.77-7.89a83.36,83.36,0,0,1,2.24-8.75A25.25,25.25,0,0,1,118.73,6C121.49,3.24,126.44,0,134.35,0a23,23,0,0,1,16.17,6.4,22.26,22.26,0,0,1,7,16.5,46.79,46.79,0,0,1-1.31,9.74l.85-.34a56.72,56.72,0,0,1,20.71-3.71c9.93,0,18.75,2.23,26.2,6.62.58.34,1.14.69,1.69,1V25.09c0-7.16,2-13.06,5.86-17.53a23.15,23.15,0,0,1,34-.29c4.11,4.49,6.19,10.48,6.19,17.82V37.44q1.62-1.11,3.33-2.1c7.82-4.48,17.05-6.75,27.44-6.75a55,55,0,0,1,18.18,2.94,49.32,49.32,0,0,1,14.51,7.82,47.86,47.86,0,0,1,4,3.57,47.7,47.7,0,0,1,16.28-10.48,59.35,59.35,0,0,1,41.47.06A49.1,49.1,0,0,1,389,39.4a21.27,21.27,0,0,1,2.44-3.35,21.86,21.86,0,0,1,16.6-7.32,22.31,22.31,0,0,1,13.74,4.54l.38-.19a41.74,41.74,0,0,1,18.64-4.21,38.72,38.72,0,0,1,19,4.57c1,.57,2,1.18,3,1.85a40.67,40.67,0,0,1,3.59-2.08,40,40,0,0,1,18.47-4.34,41.51,41.51,0,0,1,20,4.73,33.25,33.25,0,0,1,10.58,9A46,46,0,0,1,531.34,32.3a56.72,56.72,0,0,1,20.71-3.71c9.93,0,18.75,2.23,26.2,6.62a44.74,44.74,0,0,1,17.14,17.57,45.79,45.79,0,0,1,5.6,21.7c0,6-1.42,11-4.22,15a19.67,19.67,0,0,1,3.09,10.82A25.56,25.56,0,0,1,596,113.17a37.52,37.52,0,0,1-9.52,10.52,48.57,48.57,0,0,1-14.31,7.45A58.38,58.38,0,0,1,553.47,134Z"/>
			<path class="cls-1" d="M356.06,121a42.43,42.43,0,0,1-15.91-2.86A35.16,35.16,0,0,1,320,97.35a46,46,0,0,1-2.68-16,46.88,46.88,0,0,1,2.71-16.19,35.67,35.67,0,0,1,7.79-12.57,34.53,34.53,0,0,1,12.3-8,46.43,46.43,0,0,1,31.95,0A34.62,34.62,0,0,1,392.3,65.31a46.45,46.45,0,0,1,2.67,16,46.2,46.2,0,0,1-2.71,16A35.62,35.62,0,0,1,384.4,110a34.94,34.94,0,0,1-12.29,8.12A43.62,43.62,0,0,1,356.06,121Zm0-64.26a17,17,0,0,0-9.78,2.88,18.36,18.36,0,0,0-6.53,8.51,35.2,35.2,0,0,0-2.31,13.25,34.77,34.77,0,0,0,2.28,13.1,18.69,18.69,0,0,0,6.46,8.52,16.83,16.83,0,0,0,9.88,2.94,16.61,16.61,0,0,0,13.71-6.48c3.4-4.33,5.12-10.41,5.12-18.08s-1.72-13.88-5.12-18.19A16.65,16.65,0,0,0,356.06,56.71ZM110.57,121a12.08,12.08,0,0,1-7.93-2.49,13.43,13.43,0,0,1-4.14-5.56c-.75-2-1.83-5.48-3.19-10.32l-16.44-61-16.65,61c-1.32,4.7-2.38,8.13-3.16,10.18a13.84,13.84,0,0,1-4.17,5.66A11.94,11.94,0,0,1,47,121a13.1,13.1,0,0,1-6.58-1.5,11.49,11.49,0,0,1-4.19-4.23,26.37,26.37,0,0,1-2.59-6.38c-.65-2.4-1.24-4.67-1.77-6.77L14.57,32.25A41.35,41.35,0,0,1,13,22.9a9.5,9.5,0,0,1,2.93-7A10,10,0,0,1,23.18,13c3.94,0,6.64,1.3,8,3.86a42,42,0,0,1,3.5,10.78L48,86.84,62.83,31.51a93.38,93.38,0,0,1,3-9.94,14.87,14.87,0,0,1,4.49-6A13.17,13.17,0,0,1,78.87,13c3.61,0,6.46.9,8.47,2.67a14.52,14.52,0,0,1,4.17,5.76c.75,2,1.78,5.43,3,10.08l15,55.34,13.28-59.22a73.67,73.67,0,0,1,1.89-7.46,12.18,12.18,0,0,1,3.13-5,8.92,8.92,0,0,1,6.5-2.22,10.14,10.14,0,0,1,7.21,2.82,9.42,9.42,0,0,1,3,7.08A45,45,0,0,1,143,32.25L125.7,102.09c-1.18,4.72-2.17,8.22-3,10.4a14.14,14.14,0,0,1-4.06,5.91C116.77,120.1,114,121,110.57,121Z"/>
			<path class="cls-2" d="M210.63,95.45a7.38,7.38,0,0,0-5-1.71,6.72,6.72,0,0,0-4.48,1.37c-2.39,2.25-4.37,4.06-5.86,5.37a42.58,42.58,0,0,1-4.92,3.68,20,20,0,0,1-5.46,2.51,23,23,0,0,1-6.24.8,17.41,17.41,0,0,1-16-9.93A25.2,25.2,0,0,1,160,86.43h37.44c5.08,0,9.08-.74,11.9-2.19s4.36-4.78,4.36-9.76a33,33,0,0,0-4.07-15.58,31.89,31.89,0,0,0-12.27-12.49c-5.43-3.2-12-4.82-19.6-4.82a43.72,43.72,0,0,0-16,2.82,32.64,32.64,0,0,0-12.16,8.12,35.34,35.34,0,0,0-7.5,12.68,48.67,48.67,0,0,0-2.57,16c0,12.16,3.51,21.93,10.43,29S166.75,121,179.2,121a45.34,45.34,0,0,0,14.51-2.15,35.53,35.53,0,0,0,10.5-5.39,24.7,24.7,0,0,0,6.28-6.82,13,13,0,0,0,2.1-6.3A6.18,6.18,0,0,0,210.63,95.45ZM165.55,60.6a15.17,15.17,0,0,1,11.6-4.88,15.73,15.73,0,0,1,11.95,4.81c3,3.15,4.72,7.94,5.23,14.25H160.05C160.73,68.56,162.58,63.79,165.55,60.6Z"/>
			<path class="cls-3" d="M228.57,121a9.1,9.1,0,0,1-7.16-3.17c-1.82-2.08-2.74-5.08-2.74-8.93V25.09c0-3.93.9-7,2.67-9A9.12,9.12,0,0,1,228.57,13a9.52,9.52,0,0,1,7.33,3.05c1.84,2,2.78,5.06,2.78,9v83.78c0,4-1,7-2.82,9A9.54,9.54,0,0,1,228.57,121Z"/>
			<path class="cls-4" d="M281.74,120.82c-12,0-21.46-3.54-28.2-10.54S243.4,93.79,243.4,82.06A46.75,46.75,0,0,1,248,60.88a33.6,33.6,0,0,1,13.44-14.26c5.83-3.34,12.89-5,21-5a42,42,0,0,1,13.88,2.21A36.4,36.4,0,0,1,307,49.52,27.77,27.77,0,0,1,313.78,57a15.1,15.1,0,0,1,2.34,7.5,8.06,8.06,0,0,1-2.69,6.12,9.21,9.21,0,0,1-6.5,2.5,6.69,6.69,0,0,1-4.21-1.31,20.2,20.2,0,0,1-3.64-4.07,29.19,29.19,0,0,0-7.31-8,17.85,17.85,0,0,0-23.13,3.93c-3.43,4.38-5.16,10.46-5.16,18.08a34.9,34.9,0,0,0,1.33,9.92,22.36,22.36,0,0,0,3.83,7.67,16.32,16.32,0,0,0,6,4.78,18.47,18.47,0,0,0,7.78,1.63,17.62,17.62,0,0,0,9.76-2.63,23.43,23.43,0,0,0,7.21-8.09,19.14,19.14,0,0,1,3.89-5.18,7.6,7.6,0,0,1,5.25-1.93,7.78,7.78,0,0,1,6.13,2.81,9,9,0,0,1,2.42,6,17.09,17.09,0,0,1-2.19,7.88,27.19,27.19,0,0,1-6.67,7.92,34.55,34.55,0,0,1-11.25,6A47.73,47.73,0,0,1,281.74,120.82Z"/>
			<path class="cls-2" d="M499.5,121a9.62,9.62,0,0,1-7.44-3.2c-1.92-2.1-2.89-5.24-2.89-9.32V76a74.67,74.67,0,0,0-.52-9.93,11.22,11.22,0,0,0-2.78-6.11c-1.48-1.62-3.78-2.44-6.82-2.44A12.65,12.65,0,0,0,472,59.7a15.07,15.07,0,0,0-5.22,6c-1.38,3.18-2.09,8.94-2.09,17.11v25.69c0,4.13-1,7.28-2.85,9.36a9.76,9.76,0,0,1-7.54,3.16,9.47,9.47,0,0,1-7.37-3.16c-1.87-2.08-2.81-5.23-2.81-9.36V77.67a100.9,100.9,0,0,0-.49-11.28A12.11,12.11,0,0,0,441,60c-1.39-1.63-3.64-2.46-6.68-2.46-6.14,0-10.24,2.12-12.17,6.31s-3,10.51-3,18.54v26.11c0,4.08-.95,7.21-2.81,9.32a9.51,9.51,0,0,1-7.44,3.2,9.64,9.64,0,0,1-7.44-3.2c-1.91-2.1-2.88-5.24-2.88-9.32V53.18c0-3.7.87-6.56,2.6-8.5a8.75,8.75,0,0,1,6.87-3,9.39,9.39,0,0,1,6.86,2.75,10.27,10.27,0,0,1,2.75,7.57V53a33.52,33.52,0,0,1,10.26-8.22,28.87,28.87,0,0,1,12.89-2.87,25.89,25.89,0,0,1,12.7,3A22.9,22.9,0,0,1,462,53.3a33.59,33.59,0,0,1,10.27-8.52,27.12,27.12,0,0,1,12.54-2.91A28.61,28.61,0,0,1,498.67,45a20.24,20.24,0,0,1,8.71,9.06c1.66,3.53,2.51,9.13,2.51,16.64v37.72c0,4.13-1,7.28-2.85,9.36A9.76,9.76,0,0,1,499.5,121Z"/>
			<path class="cls-3" d="M584.9,95.45a7.38,7.38,0,0,0-5-1.71,6.7,6.7,0,0,0-4.48,1.37c-2.38,2.24-4.36,4-5.86,5.37a42.58,42.58,0,0,1-4.92,3.68,20,20,0,0,1-5.46,2.51,23,23,0,0,1-6.24.8,17.41,17.41,0,0,1-16-9.93,25.2,25.2,0,0,1-2.61-11.11h37.44c5.08,0,9.08-.74,11.9-2.19S588,79.46,588,74.48a33,33,0,0,0-4.07-15.58,32,32,0,0,0-12.27-12.49c-5.43-3.2-12-4.82-19.6-4.82a43.72,43.72,0,0,0-16,2.82,32.64,32.64,0,0,0-12.16,8.12,35.42,35.42,0,0,0-7.5,12.68,48.41,48.41,0,0,0-2.57,16c0,12.16,3.51,21.93,10.43,29S541,121,553.47,121A45.34,45.34,0,0,0,568,118.82a35.53,35.53,0,0,0,10.5-5.39,24.86,24.86,0,0,0,6.28-6.82,13,13,0,0,0,2.1-6.3A6.18,6.18,0,0,0,584.9,95.45ZM539.82,60.6a15.17,15.17,0,0,1,11.6-4.88,15.73,15.73,0,0,1,12,4.81c3,3.15,4.72,7.94,5.22,14.25H534.32C535,68.56,536.85,63.79,539.82,60.6Z"/>
</svg>